<?xml version="1.0" encoding="utf-8"?>
<!-- Generator: Adobe Illustrator 26.0.1, SVG Export Plug-In . SVG Version: 6.00 Build 0)  -->
<svg version="1.1" id="Layer_1" xmlns="http://www.w3.org/2000/svg" xmlns:xlink="http://www.w3.org/1999/xlink" x="0px" y="0px"
	 viewBox="0 0 1920 2160" style="enable-background:new 0 0 1920 2160;" xml:space="preserve">
<style type="text/css">
	.st0{fill:#FFFFFF;}
</style>
<path d="M1213.5,880c-9.2-30.5-29.4-48.9-60.8-55c-0.9-0.2-1.8-0.6-2.7-0.9H770c-3.2,0.8-6.4,1.4-9.6,2.3
	c-30.7,9.2-49.4,29.4-55.5,60.9c-0.2,0.9-0.6,1.8-0.9,2.7v380c0.8,3.3,1.5,6.8,2.5,10c9.3,30.5,29.5,48.9,60.8,55
	c0.9,0.2,1.8,0.6,2.7,0.9h205.2v-212.1h-54.9v-44.7H975v-5.8c0-27.7,0-55.3,0-83c0-35,26.3-61.2,61.3-61.3c17.7,0,35.3,0,53.3,0v45
	h-69.2v104.8h66.3c-3,15.4-6,30.1-9,45.2h-57.6v212H1150c3.2-0.8,6.4-1.4,9.6-2.3c30.7-9.2,49.3-29.4,55.5-60.9
	c0.2-0.9,0.6-1.8,0.9-2.7V890C1215.2,886.7,1214.5,883.3,1213.5,880z M1186,1259.3c0,27.2-19.4,46.6-46.6,46.7
	c-28.2,0.1-56.3,0-84.5,0h-4.6v-151.8h52c7-35.2,14-69.9,21-105.1h-73v-45h69.3V899.9c-32.7,0-65.1-1.7-97.2,0.5
	c-38.5,2.6-72.7,37.5-76.2,75.9c-2,22-0.9,44.3-1.2,66.4c0,2,0,3.9,0,6.2h-54.7v104.9h54.2V1306h-5.1c-52.7,0-105.3,0-158,0
	c-28.2,0-47.5-19.2-47.5-47.3c0-119.1,0-238.3,0-357.4c0-27.9,19.2-47.2,47.1-47.2c119.3,0,238.6,0,358,0
	c27.6,0,46.9,19.3,46.9,46.8C1186,1020.3,1186,1139.8,1186,1259.3z"/>
<path class="st0" d="M704,1270c0.8,3.3,1.5,6.7,2.5,10c9.3,30.5,29.5,48.9,60.8,55c0.9,0.2,1.8,0.6,2.7,0.9c-21.9,0-43.8,0-66,0
	C704,1314,704,1292,704,1270z"/>
<path class="st0" d="M1216,890c-0.8-3.3-1.5-6.7-2.5-10c-9.3-30.5-29.4-48.9-60.8-55c-0.9-0.2-1.8-0.6-2.7-0.9c22,0,44,0,66,0
	C1216,846,1216,868,1216,890z"/>
<path class="st0" d="M1150,1336c3.2-0.8,6.4-1.4,9.6-2.3c30.7-9.2,49.3-29.4,55.5-60.9c0.2-0.9,0.6-1.8,0.9-2.7c0,22,0,44,0,66
	C1194,1336,1172,1336,1150,1336z"/>
<path class="st0" d="M770,824c-3.2,0.8-6.4,1.4-9.6,2.3c-30.7,9.2-49.4,29.4-55.5,61c-0.2,0.9-0.6,1.8-0.9,2.7c0-22,0-44,0-66
	C726,824,748,824,770,824z"/>
</svg>
